<svg width="97" height="60" viewBox="0 0 97 60" fill="none" xmlns="http://www.w3.org/2000/svg">
<g clip-path="url(#clip0)">
<path d="M23.5208 37.7251H15.6349C15.1837 37.7251 14.8179 38.0909 14.8179 38.5421V40.6975C14.8179 41.1488 15.1837 41.5146 15.6349 41.5146H23.5208C23.9721 41.5146 24.3379 41.1488 24.3379 40.6975V38.5421C24.3379 38.0909 23.9721 37.7251 23.5208 37.7251Z" fill="#6C63FF"/>
<path d="M33.0408 37.7251H25.1549C24.7037 37.7251 24.3379 38.0909 24.3379 38.5421V40.6975C24.3379 41.1488 24.7037 41.5146 25.1549 41.5146H33.0408C33.4921 41.5146 33.8579 41.1488 33.8579 40.6975V38.5421C33.8579 38.0909 33.4921 37.7251 33.0408 37.7251Z" fill="#6C63FF"/>
<path opacity="0.1" d="M33.0408 37.7251H25.1549C24.7037 37.7251 24.3379 38.0909 24.3379 38.5421V40.6975C24.3379 41.1488 24.7037 41.5146 25.1549 41.5146H33.0408C33.4921 41.5146 33.8579 41.1488 33.8579 40.6975V38.5421C33.8579 38.0909 33.4921 37.7251 33.0408 37.7251Z" fill="black"/>
<path d="M42.5609 37.7251H34.675C34.2237 37.7251 33.8579 38.0909 33.8579 38.5421V40.6975C33.8579 41.1488 34.2237 41.5146 34.675 41.5146H42.5609C43.0121 41.5146 43.3779 41.1488 43.3779 40.6975V38.5421C43.3779 38.0909 43.0121 37.7251 42.5609 37.7251Z" fill="#6C63FF"/>
<path d="M52.0809 37.7251H44.195C43.7437 37.7251 43.3779 38.0909 43.3779 38.5421V40.6975C43.3779 41.1488 43.7437 41.5146 44.195 41.5146H52.0809C52.5321 41.5146 52.8979 41.1488 52.8979 40.6975V38.5421C52.8979 38.0909 52.5321 37.7251 52.0809 37.7251Z" fill="#6C63FF"/>
<path opacity="0.1" d="M52.0809 37.7251H44.195C43.7437 37.7251 43.3779 38.0909 43.3779 38.5421V40.6975C43.3779 41.1488 43.7437 41.5146 44.195 41.5146H52.0809C52.5321 41.5146 52.8979 41.1488 52.8979 40.6975V38.5421C52.8979 38.0909 52.5321 37.7251 52.0809 37.7251Z" fill="black"/>
<path d="M61.6009 37.7251H53.715C53.2638 37.7251 52.8979 38.0909 52.8979 38.5421V40.6975C52.8979 41.1488 53.2638 41.5146 53.715 41.5146H61.6009C62.0521 41.5146 62.4179 41.1488 62.4179 40.6975V38.5421C62.4179 38.0909 62.0521 37.7251 61.6009 37.7251Z" fill="#6C63FF"/>
<path d="M71.1209 37.7251H63.235C62.7838 37.7251 62.418 38.0909 62.418 38.5421V40.6975C62.418 41.1488 62.7838 41.5146 63.235 41.5146H71.1209C71.5722 41.5146 71.938 41.1488 71.938 40.6975V38.5421C71.938 38.0909 71.5722 37.7251 71.1209 37.7251Z" fill="#6C63FF"/>
<path opacity="0.1" d="M71.1209 37.7251H63.235C62.7838 37.7251 62.418 38.0909 62.418 38.5421V40.6975C62.418 41.1488 62.7838 41.5146 63.235 41.5146H71.1209C71.5722 41.5146 71.938 41.1488 71.938 40.6975V38.5421C71.938 38.0909 71.5722 37.7251 71.1209 37.7251Z" fill="black"/>
<path d="M63.2348 37.7251H71.1207C71.5719 37.7251 71.9377 37.3593 71.9377 36.908V34.7526C71.9377 34.3013 71.5719 33.9355 71.1207 33.9355H63.2348C62.7835 33.9355 62.4177 34.3013 62.4177 34.7526V36.908C62.4177 37.3593 62.7835 37.7251 63.2348 37.7251Z" fill="#6C63FF"/>
<path d="M53.715 37.7251H61.6009C62.0522 37.7251 62.418 37.3593 62.418 36.908V34.7526C62.418 34.3013 62.0522 33.9355 61.6009 33.9355H53.715C53.2638 33.9355 52.898 34.3013 52.898 34.7526V36.908C52.898 37.3593 53.2638 37.7251 53.715 37.7251Z" fill="#6C63FF"/>
<path opacity="0.1" d="M53.715 37.7251H61.6009C62.0522 37.7251 62.418 37.3593 62.418 36.908V34.7526C62.418 34.3013 62.0522 33.9355 61.6009 33.9355H53.715C53.2638 33.9355 52.898 34.3013 52.898 34.7526V36.908C52.898 37.3593 53.2638 37.7251 53.715 37.7251Z" fill="black"/>
<path d="M44.195 37.7251H52.0809C52.5321 37.7251 52.8979 37.3593 52.8979 36.908V34.7526C52.8979 34.3013 52.5321 33.9355 52.0809 33.9355H44.195C43.7438 33.9355 43.378 34.3013 43.378 34.7526V36.908C43.378 37.3593 43.7438 37.7251 44.195 37.7251Z" fill="#6C63FF"/>
<path d="M34.675 37.7251H42.5609C43.0121 37.7251 43.3779 37.3593 43.3779 36.908V34.7526C43.3779 34.3013 43.0121 33.9355 42.5609 33.9355H34.675C34.2237 33.9355 33.8579 34.3013 33.8579 34.7526V36.908C33.8579 37.3593 34.2237 37.7251 34.675 37.7251Z" fill="#6C63FF"/>
<path opacity="0.1" d="M34.675 37.7251H42.5609C43.0121 37.7251 43.3779 37.3593 43.3779 36.908V34.7526C43.3779 34.3013 43.0121 33.9355 42.5609 33.9355H34.675C34.2237 33.9355 33.8579 34.3013 33.8579 34.7526V36.908C33.8579 37.3593 34.2237 37.7251 34.675 37.7251Z" fill="black"/>
<path d="M25.155 37.7251H33.0409C33.4921 37.7251 33.8579 37.3593 33.8579 36.908V34.7526C33.8579 34.3013 33.4921 33.9355 33.0409 33.9355H25.155C24.7037 33.9355 24.3379 34.3013 24.3379 34.7526V36.908C24.3379 37.3593 24.7037 37.7251 25.155 37.7251Z" fill="#6C63FF"/>
<path d="M15.635 37.7251H23.5208C23.9721 37.7251 24.3379 37.3593 24.3379 36.908V34.7526C24.3379 34.3013 23.9721 33.9355 23.5208 33.9355H15.635C15.1837 33.9355 14.8179 34.3013 14.8179 34.7526V36.908C14.8179 37.3593 15.1837 37.7251 15.635 37.7251Z" fill="#6C63FF"/>
<path opacity="0.1" d="M15.635 37.7251H23.5208C23.9721 37.7251 24.3379 37.3593 24.3379 36.908V34.7526C24.3379 34.3013 23.9721 33.9355 23.5208 33.9355H15.635C15.1837 33.9355 14.8179 34.3013 14.8179 34.7526V36.908C14.8179 37.3593 15.1837 37.7251 15.635 37.7251Z" fill="black"/>
<path d="M23.5208 30.1461H15.6349C15.1837 30.1461 14.8179 30.5119 14.8179 30.9631V33.1185C14.8179 33.5698 15.1837 33.9356 15.6349 33.9356H23.5208C23.9721 33.9356 24.3379 33.5698 24.3379 33.1185V30.9631C24.3379 30.5119 23.9721 30.1461 23.5208 30.1461Z" fill="#6C63FF"/>
<path d="M33.0408 30.1461H25.1549C24.7037 30.1461 24.3379 30.5119 24.3379 30.9631V33.1185C24.3379 33.5698 24.7037 33.9356 25.1549 33.9356H33.0408C33.4921 33.9356 33.8579 33.5698 33.8579 33.1185V30.9631C33.8579 30.5119 33.4921 30.1461 33.0408 30.1461Z" fill="#6C63FF"/>
<path opacity="0.1" d="M33.0408 30.1461H25.1549C24.7037 30.1461 24.3379 30.5119 24.3379 30.9631V33.1185C24.3379 33.5698 24.7037 33.9356 25.1549 33.9356H33.0408C33.4921 33.9356 33.8579 33.5698 33.8579 33.1185V30.9631C33.8579 30.5119 33.4921 30.1461 33.0408 30.1461Z" fill="black"/>
<path d="M42.5609 30.1461H34.675C34.2237 30.1461 33.8579 30.5119 33.8579 30.9631V33.1185C33.8579 33.5698 34.2237 33.9356 34.675 33.9356H42.5609C43.0121 33.9356 43.3779 33.5698 43.3779 33.1185V30.9631C43.3779 30.5119 43.0121 30.1461 42.5609 30.1461Z" fill="#6C63FF"/>
<path d="M52.0809 30.1461H44.195C43.7437 30.1461 43.3779 30.5119 43.3779 30.9631V33.1185C43.3779 33.5698 43.7437 33.9356 44.195 33.9356H52.0809C52.5321 33.9356 52.8979 33.5698 52.8979 33.1185V30.9631C52.8979 30.5119 52.5321 30.1461 52.0809 30.1461Z" fill="#6C63FF"/>
<path opacity="0.1" d="M52.0809 30.1461H44.195C43.7437 30.1461 43.3779 30.5119 43.3779 30.9631V33.1185C43.3779 33.5698 43.7437 33.9356 44.195 33.9356H52.0809C52.5321 33.9356 52.8979 33.5698 52.8979 33.1185V30.9631C52.8979 30.5119 52.5321 30.1461 52.0809 30.1461Z" fill="black"/>
<path d="M61.6009 30.1461H53.715C53.2638 30.1461 52.8979 30.5119 52.8979 30.9631V33.1185C52.8979 33.5698 53.2638 33.9356 53.715 33.9356H61.6009C62.0521 33.9356 62.4179 33.5698 62.4179 33.1185V30.9631C62.4179 30.5119 62.0521 30.1461 61.6009 30.1461Z" fill="#6C63FF"/>
<path d="M71.1209 30.1461H63.235C62.7838 30.1461 62.418 30.5119 62.418 30.9631V33.1185C62.418 33.5698 62.7838 33.9356 63.235 33.9356H71.1209C71.5722 33.9356 71.938 33.5698 71.938 33.1185V30.9631C71.938 30.5119 71.5722 30.1461 71.1209 30.1461Z" fill="#6C63FF"/>
<path opacity="0.1" d="M71.1209 30.1461H63.235C62.7838 30.1461 62.418 30.5119 62.418 30.9631V33.1185C62.418 33.5698 62.7838 33.9356 63.235 33.9356H71.1209C71.5722 33.9356 71.938 33.5698 71.938 33.1185V30.9631C71.938 30.5119 71.5722 30.1461 71.1209 30.1461Z" fill="black"/>
<path d="M63.2348 30.1461H71.1207C71.5719 30.1461 71.9377 29.7802 71.9377 29.329V27.1736C71.9377 26.7223 71.5719 26.3565 71.1207 26.3565H63.2348C62.7835 26.3565 62.4177 26.7223 62.4177 27.1736V29.329C62.4177 29.7802 62.7835 30.1461 63.2348 30.1461Z" fill="#6C63FF"/>
<path d="M53.715 30.1461H61.6009C62.0522 30.1461 62.418 29.7802 62.418 29.329V27.1736C62.418 26.7223 62.0522 26.3565 61.6009 26.3565H53.715C53.2638 26.3565 52.898 26.7223 52.898 27.1736V29.329C52.898 29.7802 53.2638 30.1461 53.715 30.1461Z" fill="#6C63FF"/>
<path opacity="0.1" d="M53.715 30.1461H61.6009C62.0522 30.1461 62.418 29.7802 62.418 29.329V27.1736C62.418 26.7223 62.0522 26.3565 61.6009 26.3565H53.715C53.2638 26.3565 52.898 26.7223 52.898 27.1736V29.329C52.898 29.7802 53.2638 30.1461 53.715 30.1461Z" fill="black"/>
<path d="M44.195 30.1461H52.0809C52.5321 30.1461 52.8979 29.7802 52.8979 29.329V27.1736C52.8979 26.7223 52.5321 26.3565 52.0809 26.3565H44.195C43.7438 26.3565 43.378 26.7223 43.378 27.1736V29.329C43.378 29.7802 43.7438 30.1461 44.195 30.1461Z" fill="#6C63FF"/>
<path d="M34.675 30.1461H42.5609C43.0121 30.1461 43.3779 29.7802 43.3779 29.329V27.1736C43.3779 26.7223 43.0121 26.3565 42.5609 26.3565H34.675C34.2237 26.3565 33.8579 26.7223 33.8579 27.1736V29.329C33.8579 29.7802 34.2237 30.1461 34.675 30.1461Z" fill="#6C63FF"/>
<path opacity="0.1" d="M34.675 30.1461H42.5609C43.0121 30.1461 43.3779 29.7802 43.3779 29.329V27.1736C43.3779 26.7223 43.0121 26.3565 42.5609 26.3565H34.675C34.2237 26.3565 33.8579 26.7223 33.8579 27.1736V29.329C33.8579 29.7802 34.2237 30.1461 34.675 30.1461Z" fill="black"/>
<path d="M25.155 30.1461H33.0409C33.4921 30.1461 33.8579 29.7802 33.8579 29.329V27.1736C33.8579 26.7223 33.4921 26.3565 33.0409 26.3565H25.155C24.7037 26.3565 24.3379 26.7223 24.3379 27.1736V29.329C24.3379 29.7802 24.7037 30.1461 25.155 30.1461Z" fill="#6C63FF"/>
<path d="M15.635 30.1461H23.5208C23.9721 30.1461 24.3379 29.7802 24.3379 29.329V27.1736C24.3379 26.7223 23.9721 26.3565 23.5208 26.3565H15.635C15.1837 26.3565 14.8179 26.7223 14.8179 27.1736V29.329C14.8179 29.7802 15.1837 30.1461 15.635 30.1461Z" fill="#6C63FF"/>
<path opacity="0.1" d="M15.635 30.1461H23.5208C23.9721 30.1461 24.3379 29.7802 24.3379 29.329V27.1736C24.3379 26.7223 23.9721 26.3565 23.5208 26.3565H15.635C15.1837 26.3565 14.8179 26.7223 14.8179 27.1736V29.329C14.8179 29.7802 15.1837 30.1461 15.635 30.1461Z" fill="black"/>
<path d="M23.5208 22.7519H15.6349C15.1837 22.7519 14.8179 23.1177 14.8179 23.5689V25.7243C14.8179 26.1756 15.1837 26.5414 15.6349 26.5414H23.5208C23.9721 26.5414 24.3379 26.1756 24.3379 25.7243V23.5689C24.3379 23.1177 23.9721 22.7519 23.5208 22.7519Z" fill="#6C63FF"/>
<path d="M33.0408 22.7519H25.1549C24.7037 22.7519 24.3379 23.1177 24.3379 23.5689V25.7243C24.3379 26.1756 24.7037 26.5414 25.1549 26.5414H33.0408C33.4921 26.5414 33.8579 26.1756 33.8579 25.7243V23.5689C33.8579 23.1177 33.4921 22.7519 33.0408 22.7519Z" fill="#6C63FF"/>
<path opacity="0.1" d="M33.0408 22.7519H25.1549C24.7037 22.7519 24.3379 23.1177 24.3379 23.5689V25.7243C24.3379 26.1756 24.7037 26.5414 25.1549 26.5414H33.0408C33.4921 26.5414 33.8579 26.1756 33.8579 25.7243V23.5689C33.8579 23.1177 33.4921 22.7519 33.0408 22.7519Z" fill="black"/>
<path d="M42.5609 22.7519H34.675C34.2237 22.7519 33.8579 23.1177 33.8579 23.5689V25.7243C33.8579 26.1756 34.2237 26.5414 34.675 26.5414H42.5609C43.0121 26.5414 43.3779 26.1756 43.3779 25.7243V23.5689C43.3779 23.1177 43.0121 22.7519 42.5609 22.7519Z" fill="#6C63FF"/>
<path d="M52.0809 22.7519H44.195C43.7437 22.7519 43.3779 23.1177 43.3779 23.5689V25.7243C43.3779 26.1756 43.7437 26.5414 44.195 26.5414H52.0809C52.5321 26.5414 52.8979 26.1756 52.8979 25.7243V23.5689C52.8979 23.1177 52.5321 22.7519 52.0809 22.7519Z" fill="#6C63FF"/>
<path opacity="0.1" d="M52.0809 22.7519H44.195C43.7437 22.7519 43.3779 23.1177 43.3779 23.5689V25.7243C43.3779 26.1756 43.7437 26.5414 44.195 26.5414H52.0809C52.5321 26.5414 52.8979 26.1756 52.8979 25.7243V23.5689C52.8979 23.1177 52.5321 22.7519 52.0809 22.7519Z" fill="black"/>
<path d="M61.6009 22.7519H53.715C53.2638 22.7519 52.8979 23.1177 52.8979 23.5689V25.7243C52.8979 26.1756 53.2638 26.5414 53.715 26.5414H61.6009C62.0521 26.5414 62.4179 26.1756 62.4179 25.7243V23.5689C62.4179 23.1177 62.0521 22.7519 61.6009 22.7519Z" fill="#6C63FF"/>
<path d="M71.1209 22.7519H63.235C62.7838 22.7519 62.418 23.1177 62.418 23.5689V25.7243C62.418 26.1756 62.7838 26.5414 63.235 26.5414H71.1209C71.5722 26.5414 71.938 26.1756 71.938 25.7243V23.5689C71.938 23.1177 71.5722 22.7519 71.1209 22.7519Z" fill="#6C63FF"/>
<path opacity="0.1" d="M71.1209 22.7519H63.235C62.7838 22.7519 62.418 23.1177 62.418 23.5689V25.7243C62.418 26.1756 62.7838 26.5414 63.235 26.5414H71.1209C71.5722 26.5414 71.938 26.1756 71.938 25.7243V23.5689C71.938 23.1177 71.5722 22.7519 71.1209 22.7519Z" fill="black"/>
<path d="M63.2348 22.7519H71.1207C71.5719 22.7519 71.9377 22.3861 71.9377 21.9348V19.7794C71.9377 19.3282 71.5719 18.9624 71.1207 18.9624H63.2348C62.7835 18.9624 62.4177 19.3282 62.4177 19.7794V21.9348C62.4177 22.3861 62.7835 22.7519 63.2348 22.7519Z" fill="#6C63FF"/>
<path d="M53.715 22.7519H61.6009C62.0522 22.7519 62.418 22.3861 62.418 21.9348V19.7794C62.418 19.3282 62.0522 18.9624 61.6009 18.9624H53.715C53.2638 18.9624 52.898 19.3282 52.898 19.7794V21.9348C52.898 22.3861 53.2638 22.7519 53.715 22.7519Z" fill="#6C63FF"/>
<path opacity="0.1" d="M53.715 22.7519H61.6009C62.0522 22.7519 62.418 22.3861 62.418 21.9348V19.7794C62.418 19.3282 62.0522 18.9624 61.6009 18.9624H53.715C53.2638 18.9624 52.898 19.3282 52.898 19.7794V21.9348C52.898 22.3861 53.2638 22.7519 53.715 22.7519Z" fill="black"/>
<path d="M44.195 22.7519H52.0809C52.5321 22.7519 52.8979 22.3861 52.8979 21.9348V19.7794C52.8979 19.3282 52.5321 18.9624 52.0809 18.9624H44.195C43.7438 18.9624 43.378 19.3282 43.378 19.7794V21.9348C43.378 22.3861 43.7438 22.7519 44.195 22.7519Z" fill="#6C63FF"/>
<path d="M34.675 22.7519H42.5609C43.0121 22.7519 43.3779 22.3861 43.3779 21.9348V19.7794C43.3779 19.3282 43.0121 18.9624 42.5609 18.9624H34.675C34.2237 18.9624 33.8579 19.3282 33.8579 19.7794V21.9348C33.8579 22.3861 34.2237 22.7519 34.675 22.7519Z" fill="#6C63FF"/>
<path opacity="0.1" d="M34.675 22.7519H42.5609C43.0121 22.7519 43.3779 22.3861 43.3779 21.9348V19.7794C43.3779 19.3282 43.0121 18.9624 42.5609 18.9624H34.675C34.2237 18.9624 33.8579 19.3282 33.8579 19.7794V21.9348C33.8579 22.3861 34.2237 22.7519 34.675 22.7519Z" fill="black"/>
<path d="M25.155 22.7519H33.0409C33.4921 22.7519 33.8579 22.3861 33.8579 21.9348V19.7794C33.8579 19.3282 33.4921 18.9624 33.0409 18.9624H25.155C24.7037 18.9624 24.3379 19.3282 24.3379 19.7794V21.9348C24.3379 22.3861 24.7037 22.7519 25.155 22.7519Z" fill="#6C63FF"/>
<path d="M15.635 22.7519H23.5208C23.9721 22.7519 24.3379 22.3861 24.3379 21.9348V19.7794C24.3379 19.3282 23.9721 18.9624 23.5208 18.9624H15.635C15.1837 18.9624 14.8179 19.3282 14.8179 19.7794V21.9348C14.8179 22.3861 15.1837 22.7519 15.635 22.7519Z" fill="#6C63FF"/>
<path opacity="0.1" d="M15.635 22.7519H23.5208C23.9721 22.7519 24.3379 22.3861 24.3379 21.9348V19.7794C24.3379 19.3282 23.9721 18.9624 23.5208 18.9624H15.635C15.1837 18.9624 14.8179 19.3282 14.8179 19.7794V21.9348C14.8179 22.3861 15.1837 22.7519 15.635 22.7519Z" fill="black"/>
<path d="M23.5208 15.1729H15.6349C15.1837 15.1729 14.8179 15.5387 14.8179 15.9899V18.1453C14.8179 18.5966 15.1837 18.9624 15.6349 18.9624H23.5208C23.9721 18.9624 24.3379 18.5966 24.3379 18.1453V15.9899C24.3379 15.5387 23.9721 15.1729 23.5208 15.1729Z" fill="#6C63FF"/>
<path d="M33.0408 15.1729H25.1549C24.7037 15.1729 24.3379 15.5387 24.3379 15.9899V18.1453C24.3379 18.5966 24.7037 18.9624 25.1549 18.9624H33.0408C33.4921 18.9624 33.8579 18.5966 33.8579 18.1453V15.9899C33.8579 15.5387 33.4921 15.1729 33.0408 15.1729Z" fill="#6C63FF"/>
<path opacity="0.1" d="M33.0408 15.1729H25.1549C24.7037 15.1729 24.3379 15.5387 24.3379 15.9899V18.1453C24.3379 18.5966 24.7037 18.9624 25.1549 18.9624H33.0408C33.4921 18.9624 33.8579 18.5966 33.8579 18.1453V15.9899C33.8579 15.5387 33.4921 15.1729 33.0408 15.1729Z" fill="black"/>
<path d="M42.5609 15.1729H34.675C34.2237 15.1729 33.8579 15.5387 33.8579 15.9899V18.1453C33.8579 18.5966 34.2237 18.9624 34.675 18.9624H42.5609C43.0121 18.9624 43.3779 18.5966 43.3779 18.1453V15.9899C43.3779 15.5387 43.0121 15.1729 42.5609 15.1729Z" fill="#6C63FF"/>
<path d="M52.0809 15.1729H44.195C43.7437 15.1729 43.3779 15.5387 43.3779 15.9899V18.1453C43.3779 18.5966 43.7437 18.9624 44.195 18.9624H52.0809C52.5321 18.9624 52.8979 18.5966 52.8979 18.1453V15.9899C52.8979 15.5387 52.5321 15.1729 52.0809 15.1729Z" fill="#6C63FF"/>
<path opacity="0.1" d="M52.0809 15.1729H44.195C43.7437 15.1729 43.3779 15.5387 43.3779 15.9899V18.1453C43.3779 18.5966 43.7437 18.9624 44.195 18.9624H52.0809C52.5321 18.9624 52.8979 18.5966 52.8979 18.1453V15.9899C52.8979 15.5387 52.5321 15.1729 52.0809 15.1729Z" fill="black"/>
<path d="M61.6009 15.1729H53.715C53.2638 15.1729 52.8979 15.5387 52.8979 15.9899V18.1453C52.8979 18.5966 53.2638 18.9624 53.715 18.9624H61.6009C62.0521 18.9624 62.4179 18.5966 62.4179 18.1453V15.9899C62.4179 15.5387 62.0521 15.1729 61.6009 15.1729Z" fill="#6C63FF"/>
<path d="M71.1209 15.1729H63.235C62.7838 15.1729 62.418 15.5387 62.418 15.9899V18.1453C62.418 18.5966 62.7838 18.9624 63.235 18.9624H71.1209C71.5722 18.9624 71.938 18.5966 71.938 18.1453V15.9899C71.938 15.5387 71.5722 15.1729 71.1209 15.1729Z" fill="#6C63FF"/>
<path opacity="0.1" d="M71.1209 15.1729H63.235C62.7838 15.1729 62.418 15.5387 62.418 15.9899V18.1453C62.418 18.5966 62.7838 18.9624 63.235 18.9624H71.1209C71.5722 18.9624 71.938 18.5966 71.938 18.1453V15.9899C71.938 15.5387 71.5722 15.1729 71.1209 15.1729Z" fill="black"/>
<path d="M71.1208 2.54822H62.4955C62.0443 2.54822 61.6785 2.91403 61.6785 3.36527V5.81459C61.6785 6.26584 62.0443 6.63165 62.4955 6.63165H71.1208C71.572 6.63165 71.9378 6.26584 71.9378 5.81459V3.36527C71.9378 2.91403 71.572 2.54822 71.1208 2.54822Z" fill="url(#paint0_linear)"/>
<path d="M62.8652 6.48468L70.7511 6.48468C71.2023 6.48468 71.5681 6.11887 71.5681 5.66762V3.51222C71.5681 3.06098 71.2023 2.69517 70.7511 2.69517L62.8652 2.69517C62.4139 2.69517 62.0481 3.06098 62.0481 3.51222V5.66762C62.0481 6.11887 62.4139 6.48468 62.8652 6.48468Z" fill="#6C63FF"/>
<path d="M53.715 15.1729L61.6009 15.1729C62.0522 15.1729 62.418 14.807 62.418 14.3558V12.2004C62.418 11.7491 62.0522 11.3833 61.6009 11.3833H53.715C53.2638 11.3833 52.898 11.7491 52.898 12.2004V14.3558C52.898 14.807 53.2638 15.1729 53.715 15.1729Z" fill="#6C63FF"/>
<path opacity="0.1" d="M53.715 15.1729L61.6009 15.1729C62.0522 15.1729 62.418 14.807 62.418 14.3558V12.2004C62.418 11.7491 62.0522 11.3833 61.6009 11.3833H53.715C53.2638 11.3833 52.898 11.7491 52.898 12.2004V14.3558C52.898 14.807 53.2638 15.1729 53.715 15.1729Z" fill="black"/>
<path d="M44.195 15.1729L52.0809 15.1729C52.5321 15.1729 52.8979 14.807 52.8979 14.3558V12.2004C52.8979 11.7491 52.5321 11.3833 52.0809 11.3833H44.195C43.7438 11.3833 43.378 11.7491 43.378 12.2004V14.3558C43.378 14.807 43.7438 15.1729 44.195 15.1729Z" fill="#6C63FF"/>
<path d="M34.675 15.1729L42.5609 15.1729C43.0121 15.1729 43.3779 14.807 43.3779 14.3558V12.2004C43.3779 11.7491 43.0121 11.3833 42.5609 11.3833H34.675C34.2237 11.3833 33.8579 11.7491 33.8579 12.2004V14.3558C33.8579 14.807 34.2237 15.1729 34.675 15.1729Z" fill="#6C63FF"/>
<path opacity="0.1" d="M34.675 15.1729L42.5609 15.1729C43.0121 15.1729 43.3779 14.807 43.3779 14.3558V12.2004C43.3779 11.7491 43.0121 11.3833 42.5609 11.3833H34.675C34.2237 11.3833 33.8579 11.7491 33.8579 12.2004V14.3558C33.8579 14.807 34.2237 15.1729 34.675 15.1729Z" fill="black"/>
<path d="M25.155 15.1729L33.0409 15.1729C33.4921 15.1729 33.8579 14.807 33.8579 14.3558V12.2004C33.8579 11.7491 33.4921 11.3833 33.0409 11.3833H25.155C24.7037 11.3833 24.3379 11.7491 24.3379 12.2004V14.3558C24.3379 14.807 24.7037 15.1729 25.155 15.1729Z" fill="#6C63FF"/>
<path d="M15.635 15.1729L23.5208 15.1729C23.9721 15.1729 24.3379 14.807 24.3379 14.3558V12.2004C24.3379 11.7491 23.9721 11.3833 23.5208 11.3833H15.635C15.1837 11.3833 14.8179 11.7491 14.8179 12.2004V14.3558C14.8179 14.807 15.1837 15.1729 15.635 15.1729Z" fill="#6C63FF"/>
<path opacity="0.1" d="M15.635 15.1729L23.5208 15.1729C23.9721 15.1729 24.3379 14.807 24.3379 14.3558V12.2004C24.3379 11.7491 23.9721 11.3833 23.5208 11.3833H15.635C15.1837 11.3833 14.8179 11.7491 14.8179 12.2004V14.3558C14.8179 14.807 15.1837 15.1729 15.635 15.1729Z" fill="black"/>
<path d="M46.1211 60C71.5931 60 92.2423 55.3033 92.2423 49.5095C92.2423 43.7158 71.5931 39.019 46.1211 39.019C20.6491 39.019 0 43.7158 0 49.5095C0 55.3033 20.6491 60 46.1211 60Z" fill="#F5F5F5"/>
<path d="M76.1535 48.3218C76.1535 48.3218 71.0053 47.2922 69.6318 45.9187C68.2583 44.5452 62.0805 42.143 61.3938 43.8594C60.707 45.5758 52.127 51.4116 57.9666 52.4413C63.8061 53.4709 71.6957 53.8138 73.4121 53.128C75.1284 52.4422 76.1535 48.3218 76.1535 48.3218Z" fill="#A8A8A8"/>
<path opacity="0.2" d="M57.9666 51.8036C63.8015 52.8332 71.6957 53.1761 73.4121 52.4903C74.719 51.9672 75.6303 49.4559 75.9861 48.2867L76.1581 48.3228C76.1581 48.3228 75.1284 52.4413 73.4121 53.129C71.6957 53.8167 63.7996 53.4719 57.9666 52.4423C56.2825 52.1446 55.801 51.4468 55.9822 50.5632C56.118 51.139 56.7086 51.5818 57.9666 51.8036Z" fill="black"/>
<path d="M86.5701 2.60367C86.4783 2.37502 86.3321 2.17227 86.144 2.01306C84.7622 0.754199 82.5283 1.13592 80.8128 0.366006C80.4173 0.188546 80.0124 -0.0573107 79.5836 0.0101611C78.9846 0.102588 78.4273 0.786548 77.9051 0.483387L77.9421 0.597074L77.9051 0.577664L78.2896 1.74779C78.4375 2.19699 78.5927 2.65912 78.8793 3.03345C78.455 3.40339 78.1303 3.87381 77.9349 4.40166C77.7394 4.92952 77.6794 5.49796 77.7604 6.05499C77.8415 6.61201 78.0608 7.13982 78.3986 7.59014C78.7363 8.04046 79.1815 8.39891 79.6935 8.63269C79.712 8.67151 79.7296 8.71125 79.7472 8.75099L79.7961 8.77133C79.9099 9.03306 79.9948 9.30641 80.0494 9.58653C79.6048 9.64846 78.8294 10.1411 78.0678 10.8657L76.5446 10.8149C75.5594 10.782 74.606 10.4578 73.805 9.88323L69.2428 6.60668C68.9178 6.63869 68.6117 6.77411 68.3694 6.99303C67.8037 6.40335 67.3231 5.79148 67.3638 5.42177C67.3638 5.42177 65.2435 1.45387 64.4726 3.43736C63.7018 5.42084 65.9182 7.50415 65.9182 7.50415L67.324 9.32589C67.2685 9.64529 67.2333 9.96789 67.2187 10.2918C68.9535 12.2762 75.0241 14.0711 75.0241 14.0711L75.9706 14.1173L75.9761 14.1635C75.9179 14.4119 75.8893 14.6663 75.8911 14.9214C75.8911 14.9584 75.8911 14.9963 75.8911 15.0351C75.8911 15.0739 75.8911 15.0859 75.8911 15.1109C75.9392 18.2756 76.3726 27.9583 76.3726 27.9583C76.4568 27.9204 76.5446 27.8862 76.6333 27.8538L76.5658 28.7143C76.5658 28.7143 72.5184 29.2809 69.5312 30.415C66.5439 31.5491 66.4478 32.8717 66.4478 32.8717V44.5415C65.5947 44.9796 64.248 45.5582 63.5567 45.2468C62.8062 44.9122 62.3949 45.1932 62.32 45.4861C62.3058 45.5441 62.3058 45.6047 62.32 45.6627C62.3264 45.6888 62.336 45.7139 62.3487 45.7376V45.7431C62.3624 45.7675 62.3795 45.7899 62.3995 45.8096C62.6888 46.0934 68.9526 48.5492 70.3982 48.1712C70.4429 48.1594 70.4867 48.1446 70.5294 48.1268C70.5433 48.1212 70.5553 48.1138 70.5691 48.1074C70.583 48.1009 70.6228 48.0824 70.6477 48.0676C70.6727 48.0528 70.6764 48.0482 70.6902 48.039C70.7041 48.0297 70.7337 48.0103 70.754 47.9946C70.7743 47.9789 70.7808 47.9706 70.7937 47.9586C70.8067 47.9466 70.8316 47.9262 70.8483 47.9077C70.8649 47.8893 70.8723 47.88 70.8843 47.8661C70.8963 47.8523 70.9176 47.8292 70.9324 47.8088C70.9472 47.7885 70.9527 47.7783 70.9638 47.7636C70.9749 47.7488 70.9934 47.721 71.0063 47.6989C71.0193 47.6767 71.0239 47.6674 71.0322 47.6508C71.0405 47.6342 71.0581 47.6037 71.0701 47.5787C71.0821 47.5537 71.0849 47.5463 71.0914 47.5297C71.0978 47.5131 71.1145 47.477 71.1246 47.4502C71.1348 47.4234 71.1357 47.4179 71.1422 47.4012C71.1487 47.3846 71.1625 47.343 71.1708 47.3088C71.1708 47.2931 71.1792 47.2774 71.1838 47.2617C71.1921 47.2293 71.2013 47.1979 71.2087 47.1692C71.2087 47.1545 71.2152 47.1397 71.218 47.1249C71.2254 47.0898 71.2328 47.0546 71.2383 47.0195C71.2383 47.0066 71.2383 46.9927 71.2448 46.9798C71.2513 46.9419 71.2568 46.9031 71.2614 46.8652V46.8319C71.266 46.7903 71.2707 46.7487 71.2744 46.7071V46.6812C71.2781 46.6362 71.2808 46.5913 71.2827 46.5463V46.5278C71.2827 46.4797 71.2827 46.4317 71.2827 46.3836V46.3744C71.2809 45.8108 71.219 45.2491 71.0978 44.6987V44.6987L71.4611 34.76C73.3539 34.7894 75.2469 34.7197 77.1324 34.5511L77.3394 39.2945C77.3394 39.2945 77.3394 42.412 78.3996 43.8289C79.3072 45.0416 80.3553 50.4051 80.6382 51.9274C80.249 52.6668 79.5041 53.5911 78.2064 53.5597C78.2064 53.5597 75.7654 53.3489 75.9031 54.0218C75.907 54.0394 75.9122 54.0567 75.9188 54.0736V54.0736C75.9265 54.0929 75.9355 54.1117 75.9456 54.1299V54.1299C75.9558 54.1475 75.9669 54.1651 75.9798 54.1835L75.9872 54.1946C76.0011 54.214 76.0168 54.2344 76.0344 54.2556V54.2603C76.051 54.2797 76.0686 54.2991 76.088 54.3185L76.1046 54.3351C76.1268 54.3573 76.149 54.3795 76.1748 54.4026C77.4272 55.5367 84.7512 55.7252 84.7512 55.7252V55.6993C84.7512 55.6919 84.7512 55.6827 84.7512 55.6725C84.7512 55.3444 84.7031 53.6234 84.265 52.3276H84.3667C84.3667 52.3276 83.3065 42.7854 82.4396 41.6523C82.4396 41.6523 82.2094 36.6205 82.7289 33.4678L82.8213 33.4327C85.2503 32.5251 85.4231 30.2902 85.1726 28.6487C85.6348 28.7966 85.9047 28.8973 85.9047 28.8973C85.9047 28.8973 85.8963 28.8262 85.8806 28.6995L85.9047 28.7088C85.9047 28.7088 85.8584 28.4084 85.7817 27.9407C85.608 26.6532 85.2715 24.4035 84.9129 23.3415C84.8547 23.1077 84.7992 22.9081 84.7484 22.7574C84.5414 22.1192 84.3993 21.4618 84.3241 20.7952C84.2259 19.9311 84.1762 19.0621 84.1753 18.1924C84.1832 17.0305 84.2722 15.8704 84.4415 14.7209C84.5885 13.7171 84.7188 12.5747 84.7096 11.7771C84.7198 11.4985 84.7002 11.2196 84.6513 10.9452C84.5229 10.3565 83.9544 9.9738 83.3638 9.7298C83.3259 9.71408 83.2871 9.70114 83.2483 9.68636C83.2631 9.46361 83.2816 9.21036 83.3056 8.94694C83.3764 8.99598 83.4564 9.03012 83.5407 9.04728C83.6251 9.06444 83.7121 9.06427 83.7964 9.04676C84.0506 8.9913 84.2326 8.77965 84.3944 8.58462C85.2484 7.53558 86.1256 6.44216 86.4537 5.13894C86.5862 4.55696 86.6483 3.96115 86.6385 3.36434C86.6385 3.33168 86.6385 3.29903 86.6385 3.26637C86.6543 3.04317 86.6312 2.81893 86.5701 2.60367V2.60367Z" fill="url(#paint1_linear)"/>
<path d="M78.7942 7.71767C78.7942 7.71767 80.0882 9.65863 79.8109 10.5829C79.5336 11.5072 82.861 10.9526 82.861 10.9526C82.861 10.9526 82.9534 7.34796 83.6004 6.51611C84.2474 5.68427 78.7942 7.71767 78.7942 7.71767Z" fill="#F7C4A7"/>
<path d="M70.2445 8.96543C70.2445 8.96543 67.5641 6.74718 67.6566 5.91533C67.6566 5.91533 65.6232 2.03339 64.8837 3.97436C64.1443 5.91533 66.2702 7.94873 66.2702 7.94873L68.8581 11.3685L70.2445 8.96543Z" fill="#F7C4A7"/>
<path d="M67.5181 43.7642C67.5181 43.7642 65.0226 45.3355 64.0059 44.8734C62.9892 44.4112 62.6195 45.1506 62.8967 45.4279C63.174 45.7052 69.1818 48.1083 70.5682 47.7386C71.9546 47.3689 71.2494 44.341 71.2494 44.341L67.5181 43.7642Z" fill="#535461"/>
<path d="M80.735 50.5114C80.735 50.5114 80.1342 53.0532 78.0546 53.007C78.0546 53.007 74.9121 52.7297 76.1136 53.8388C77.3152 54.9479 84.3397 55.1328 84.3397 55.1328C84.3397 55.1328 84.3397 51.3433 83.0457 50.5114C81.7517 49.6796 80.735 50.5114 80.735 50.5114Z" fill="#535461"/>
<path d="M76.9456 32.5806L77.2228 39.0505C77.2228 39.0505 77.2228 42.1006 78.2395 43.487C79.2562 44.8734 80.4578 51.8054 80.4578 51.8054H83.97C83.97 51.8054 82.9533 42.4703 82.1215 41.3612C82.1215 41.3612 81.7518 33.1351 83.0458 31.2866L76.9456 32.5806Z" fill="#575988"/>
<path opacity="0.1" d="M76.9456 32.5806L77.2228 39.0505C77.2228 39.0505 77.2228 42.1006 78.2395 43.487C79.2562 44.8734 80.4578 51.8054 80.4578 51.8054H83.97C83.97 51.8054 82.9533 42.4703 82.1215 41.3612C82.1215 41.3612 81.7518 33.1351 83.0458 31.2866L76.9456 32.5806Z" fill="black"/>
<path d="M84.2473 26.7577C84.2473 26.7577 86.3731 31.8412 82.4912 33.32C78.6092 34.7988 71.5848 34.614 71.5848 34.614L71.2151 45.3355C71.2151 45.3355 66.871 45.8901 66.7786 44.5037V32.7654C66.7786 32.7654 66.871 31.4715 69.7362 30.3623C72.6015 29.2532 76.4834 28.6986 76.4834 28.6986L76.6683 26.2955L84.2473 26.7577Z" fill="#575988"/>
<path opacity="0.1" d="M80.8412 10.0108C81.5795 9.92904 82.3265 10.0346 83.0133 10.3176C83.5799 10.5561 84.1224 10.9304 84.2481 11.5062C84.3942 12.1884 84.2324 13.718 84.0466 15.0129C83.749 17.0422 83.7111 19.1011 83.9339 21.1399C84.0263 21.9893 84.1603 22.7297 84.3405 23.0596C84.8951 24.0763 85.4497 28.8825 85.4497 28.8825C85.4497 28.8825 79.3495 26.5719 76.2994 27.9583C76.2994 27.9583 75.8834 18.4845 75.8372 15.3882C75.8012 12.9906 78.8411 10.2585 79.8578 10.1661C80.4531 10.1124 80.2488 10.0727 80.8412 10.0108Z" fill="black"/>
<path d="M80.8412 9.82593C81.5795 9.74419 82.3265 9.84973 83.0133 10.1328C83.5799 10.3713 84.1224 10.7456 84.2481 11.3214C84.3942 12.0035 84.2324 13.5332 84.0466 14.8281C83.749 16.8573 83.7111 18.9162 83.9339 20.9551C84.0058 21.6068 84.142 22.2499 84.3405 22.8748C84.7565 24.1226 85.4497 28.6977 85.4497 28.6977C85.4497 28.6977 79.3495 26.387 76.2994 27.7734C76.2994 27.7734 75.8834 18.2996 75.8372 15.2033C75.8012 12.8058 78.8411 10.0736 79.8578 9.98121C80.4531 9.9276 80.2488 9.88786 80.8412 9.82593Z" fill="#616A6B"/>
<path opacity="0.1" d="M82.4912 14.927L75.9289 14.5573C75.9289 14.5573 75.5111 11.3399 76.4585 11.3732L82.9534 11.5996C82.9534 11.5996 84.3398 13.2633 82.4912 14.927Z" fill="black"/>
<path d="M82.4912 14.7421L75.0047 14.3724C75.0047 14.3724 69.1818 12.6163 67.5181 10.6753C67.5181 10.6753 67.6105 7.25553 69.459 7.07068L73.8318 10.277C74.596 10.8375 75.5113 11.1551 76.4585 11.1883L82.9534 11.4148C82.9534 11.4148 84.3398 13.0784 82.4912 14.7421Z" fill="#616A6B"/>
<path opacity="0.1" d="M82.8148 8.13359C82.9248 7.25738 83.3222 6.96623 83.6004 6.60854C84.2474 5.77669 78.7942 7.81009 78.7942 7.81009C79.0761 8.2431 79.3233 8.69772 79.5336 9.1697C79.9684 9.37001 80.4414 9.47375 80.92 9.47378C81.7205 9.47378 82.2399 8.60774 82.8148 8.13359Z" fill="black"/>
<path d="M80.9199 9.38135C82.7576 9.38135 84.2473 7.89163 84.2473 6.05397C84.2473 4.21631 82.7576 2.72659 80.9199 2.72659C79.0822 2.72659 77.5925 4.21631 77.5925 6.05397C77.5925 7.89163 79.0822 9.38135 80.9199 9.38135Z" fill="#F7C4A7"/>
<path opacity="0.1" d="M78.8189 3.72205C78.4649 3.33478 78.294 2.81903 78.1331 2.319L77.7634 1.17383C78.2644 1.4696 78.7986 0.80412 79.3735 0.711693C79.7848 0.646069 80.1739 0.886381 80.5529 1.05922C82.1981 1.81158 84.3424 1.43817 85.6659 2.67022C85.8468 2.82689 85.987 3.02512 86.0744 3.24789C86.1355 3.45782 86.1605 3.67659 86.1484 3.89488C86.1592 4.47826 86.1012 5.06087 85.9755 5.63067C85.6613 6.90524 84.8202 7.97554 84.0004 9.00148C83.8451 9.19651 83.6704 9.40354 83.4264 9.45807C82.9504 9.56437 82.5826 9.05047 82.3986 8.59943C82.1549 8.00175 81.9753 7.37994 81.8626 6.74441C81.8145 6.47545 81.7766 6.19817 81.6426 5.96063C81.3561 5.45321 80.6499 4.97259 80.2211 4.57885C79.7922 4.18511 79.2127 4.15183 78.8189 3.72205Z" fill="black"/>
<path d="M78.8189 3.62961C78.4649 3.24234 78.294 2.72659 78.1331 2.22656L77.7634 1.08139C78.2644 1.37716 78.7986 0.711682 79.3735 0.619255C79.7848 0.553632 80.1739 0.793943 80.5529 0.966782C82.1981 1.71914 84.3424 1.34573 85.6659 2.57779C85.8468 2.73445 85.987 2.93268 86.0744 3.15546C86.1355 3.36538 86.1605 3.58415 86.1484 3.80245C86.1592 4.38582 86.1012 4.96844 85.9755 5.53823C85.6613 6.8128 84.8202 7.8831 84.0004 8.90905C83.8451 9.10407 83.6704 9.3111 83.4264 9.36564C82.9504 9.47193 82.5826 8.95803 82.3986 8.50699C82.1549 7.90931 81.9753 7.2875 81.8626 6.65198C81.8145 6.38301 81.7766 6.10573 81.6426 5.86819C81.3561 5.36077 80.6499 4.88015 80.2211 4.48641C79.7922 4.09267 79.2127 4.05939 78.8189 3.62961Z" fill="#632652"/>
<path d="M81.798 7.02446C81.9512 7.02446 82.0753 6.75548 82.0753 6.42368C82.0753 6.09188 81.9512 5.82291 81.798 5.82291C81.6449 5.82291 81.5208 6.09188 81.5208 6.42368C81.5208 6.75548 81.6449 7.02446 81.798 7.02446Z" fill="#F7C4A7"/>
<path opacity="0.1" d="M83.4618 22.4598C83.4618 22.4598 83.277 23.0144 82.3527 22.9219C81.4284 22.8295 78.748 22.6447 78.748 22.9219" fill="black"/>
<path opacity="0.5" d="M76.1139 53.7464C75.9475 53.593 75.8643 53.4691 75.8449 53.361C75.8209 53.4811 75.8948 53.6382 76.1139 53.8388C77.3154 54.9479 84.3399 55.1328 84.3399 55.1328C84.3399 55.1328 84.3399 55.1004 84.3399 55.0404C84.2946 55.0394 77.3117 54.8518 76.1139 53.7464Z" fill="white"/>
<path opacity="0.5" d="M70.5682 47.5537C69.1817 47.9234 63.174 45.5203 62.8967 45.243C62.8597 45.2056 62.8333 45.159 62.82 45.1081C62.804 45.1635 62.8026 45.2221 62.8161 45.2781C62.8295 45.3342 62.8573 45.3858 62.8967 45.4279C63.174 45.7052 69.1817 48.1083 70.5682 47.7386C71.2817 47.5482 71.4407 46.6544 71.4277 45.8309C71.4139 46.598 71.2281 47.3763 70.5682 47.5537Z" fill="white"/>
<path d="M46.4067 46.5592C46.4435 46.5592 46.4787 46.5446 46.5047 46.5186C46.5307 46.4926 46.5453 46.4573 46.5453 46.4206C46.5453 46.3838 46.5307 46.3485 46.5047 46.3225C46.4787 46.2965 46.4435 46.2819 46.4067 46.2819C46.3699 46.2819 46.3347 46.2965 46.3087 46.3225C46.2827 46.3485 46.2681 46.3838 46.2681 46.4206C46.2681 46.4573 46.2827 46.4926 46.3087 46.5186C46.3347 46.5446 46.3699 46.5592 46.4067 46.5592V46.5592Z" fill="#67647E"/>
<path d="M87.4509 52.9755H95.3367C95.788 52.9755 96.1538 52.6097 96.1538 52.1585V50.0031C96.1538 49.5518 95.788 49.186 95.3367 49.186H87.4509C86.9996 49.186 86.6338 49.5518 86.6338 50.0031V52.1585C86.6338 52.6097 86.9996 52.9755 87.4509 52.9755Z" fill="#6C63FF"/>
<path opacity="0.1" d="M87.4509 52.9755H95.3367C95.788 52.9755 96.1538 52.6097 96.1538 52.1585V50.0031C96.1538 49.5518 95.788 49.186 95.3367 49.186H87.4509C86.9996 49.186 86.6338 49.5518 86.6338 50.0031V52.1585C86.6338 52.6097 86.9996 52.9755 87.4509 52.9755Z" fill="black"/>
<path d="M95.3368 45.5814H87.4508C86.9996 45.5814 86.6338 45.9472 86.6338 46.3984V48.5538C86.6338 49.0051 86.9996 49.3709 87.4508 49.3709H95.3368C95.788 49.3709 96.1538 49.0051 96.1538 48.5538V46.3984C96.1538 45.9472 95.788 45.5814 95.3368 45.5814Z" fill="#6C63FF"/>
<path d="M87.4509 45.5814H95.3367C95.788 45.5814 96.1538 45.2156 96.1538 44.7643V42.6089C96.1538 42.1577 95.788 41.7918 95.3367 41.7918H87.4509C86.9996 41.7918 86.6338 42.1577 86.6338 42.6089V44.7643C86.6338 45.2156 86.9996 45.5814 87.4509 45.5814Z" fill="#6C63FF"/>
<path opacity="0.1" d="M87.4509 45.5814H95.3367C95.788 45.5814 96.1538 45.2156 96.1538 44.7643V42.6089C96.1538 42.1577 95.788 41.7918 95.3367 41.7918H87.4509C86.9996 41.7918 86.6338 42.1577 86.6338 42.6089V44.7643C86.6338 45.2156 86.9996 45.5814 87.4509 45.5814Z" fill="black"/>
<path d="M95.3368 38.0023H87.4508C86.9996 38.0023 86.6338 38.3682 86.6338 38.8194V40.9748C86.6338 41.426 86.9996 41.7918 87.4508 41.7918H95.3368C95.788 41.7918 96.1538 41.426 96.1538 40.9748V38.8194C96.1538 38.3682 95.788 38.0023 95.3368 38.0023Z" fill="#6C63FF"/>
</g>
<defs>
<linearGradient id="paint0_linear" x1="66.8082" y1="6.63165" x2="66.8082" y2="2.54822" gradientUnits="userSpaceOnUse">
<stop stop-color="#808080" stop-opacity="0.25"/>
<stop offset="0.54" stop-color="#808080" stop-opacity="0.12"/>
<stop offset="1" stop-color="#808080" stop-opacity="0.1"/>
</linearGradient>
<linearGradient id="paint1_linear" x1="21614" y1="40592.3" x2="21614" y2="6989.22" gradientUnits="userSpaceOnUse">
<stop stop-color="#808080" stop-opacity="0.25"/>
<stop offset="0.54" stop-color="#808080" stop-opacity="0.12"/>
<stop offset="1" stop-color="#808080" stop-opacity="0.1"/>
</linearGradient>
<clipPath id="clip0">
<rect width="96.1538" height="60" fill="white"/>
</clipPath>
</defs>
</svg>
