<svg width="93" height="60" viewBox="0 0 93 60" fill="none" xmlns="http://www.w3.org/2000/svg">
<g clip-path="url(#clip0)">
<path d="M79.4712 60C86.4303 60 92.0717 59.4409 92.0717 58.7512C92.0717 58.0614 86.4303 57.5023 79.4712 57.5023C72.5121 57.5023 66.8706 58.0614 66.8706 58.7512C66.8706 59.4409 72.5121 60 79.4712 60Z" fill="#E6E6E6"/>
<path d="M59.0674 0H0V29.6341H59.0674V0Z" fill="#E6E6E6"/>
<path d="M56.355 2.4109H2.71216V27.2232H56.355V2.4109Z" fill="white"/>
<path d="M2.78317 27.2942L2.64111 27.1522L9.84444 19.9489L12.1047 22.2091L16.0726 18.2411L20.9447 23.1132L29.2322 14.8256L32.9993 18.5928L41.2365 10.3554L45.8575 14.9763L54.325 6.50876L54.4671 6.65081L45.8575 15.2605L41.2365 10.6395L32.9993 18.8768L29.2322 15.1098L20.9447 23.3973L16.0726 18.5252L12.1047 22.4932L9.84444 20.2329L2.78317 27.2942Z" fill="#6C63FF"/>
<path d="M41.287 11.8537C41.9528 11.8537 42.4925 11.314 42.4925 10.6482C42.4925 9.98245 41.9528 9.44275 41.287 9.44275C40.6212 9.44275 40.0815 9.98245 40.0815 10.6482C40.0815 11.314 40.6212 11.8537 41.287 11.8537Z" fill="#6C63FF"/>
<path d="M16.1732 19.6891C16.839 19.6891 17.3787 19.1494 17.3787 18.4837C17.3787 17.8179 16.839 17.2782 16.1732 17.2782C15.5075 17.2782 14.9678 17.8179 14.9678 18.4837C14.9678 19.1494 15.5075 19.6891 16.1732 19.6891Z" fill="#6C63FF"/>
<path d="M33.0497 19.7896C33.7154 19.7896 34.2551 19.2499 34.2551 18.5841C34.2551 17.9184 33.7154 17.3787 33.0497 17.3787C32.3839 17.3787 31.8442 17.9184 31.8442 18.5841C31.8442 19.2499 32.3839 19.7896 33.0497 19.7896Z" fill="#6C63FF"/>
<path d="M21.2963 24.31C21.962 24.31 22.5017 23.7703 22.5017 23.1046C22.5017 22.4388 21.962 21.8991 21.2963 21.8991C20.6305 21.8991 20.0908 22.4388 20.0908 23.1046C20.0908 23.7703 20.6305 24.31 21.2963 24.31Z" fill="#6C63FF"/>
<path d="M29.0314 16.3741C29.6971 16.3741 30.2368 15.8344 30.2368 15.1687C30.2368 14.5029 29.6971 13.9632 29.0314 13.9632C28.3656 13.9632 27.8259 14.5029 27.8259 15.1687C27.8259 15.8344 28.3656 16.3741 29.0314 16.3741Z" fill="#6C63FF"/>
<path d="M45.8073 16.3741C46.473 16.3741 47.0127 15.8344 47.0127 15.1687C47.0127 14.5029 46.473 13.9632 45.8073 13.9632C45.1415 13.9632 44.6018 14.5029 44.6018 15.1687C44.6018 15.8344 45.1415 16.3741 45.8073 16.3741Z" fill="#6C63FF"/>
<path d="M75.2414 13.9658L76.0102 21.5684H82.3371L82.033 10.0125C82.033 7.52524 80.3135 5.34967 77.8263 5.34967C75.339 5.34967 73.7209 7.42388 73.7209 9.91118L73.3154 21.5684H74.347L75.2414 13.9658Z" fill="#2F2E41"/>
<path d="M79.0228 53.8335C79.0228 53.8335 78.7497 55.563 78.2946 55.8361C77.8394 56.1092 80.6613 56.7463 80.6613 56.7463L81.1164 54.0155L79.0228 53.8335Z" fill="#FBBEBE"/>
<path d="M82.3909 34.0807L83.3921 35.2641L82.937 39.3603L82.5729 47.4616C82.5729 47.4616 83.3011 54.4707 82.5729 54.6527C81.8447 54.8348 78.5677 54.7438 78.6588 54.2886C78.7498 53.8335 78.8408 53.4694 79.0229 52.8322C79.2049 52.195 78.8408 49.9194 78.8408 49.9194L79.296 47.3706L77.6575 36.3564L82.3909 34.0807Z" fill="#2F2E41"/>
<path d="M79.114 55.563C79.114 55.563 78.1127 55.3809 78.0217 55.563C77.9307 55.7451 76.2012 57.6566 75.9281 57.6566C75.655 57.6566 73.6524 59.4771 75.746 59.5682C77.8396 59.6592 81.2987 58.0207 81.2987 58.0207C81.2987 58.0207 80.7896 55.7044 80.8166 55.8157C80.8435 55.9271 79.114 56.0181 79.114 55.563Z" fill="#2F2E41"/>
<path d="M78.0215 51.3757C78.0215 51.3757 80.5702 54.1976 80.6613 54.4707C80.7523 54.7437 82.1177 54.4707 82.1177 54.4707L82.6638 52.6501L82.2087 52.0129L79.66 49.9193L78.0215 51.3757Z" fill="#FBBEBE"/>
<path d="M81.6627 53.4694L80.3428 54.7117C80.3428 54.7117 82.0268 57.2925 82.0268 57.5656C82.0268 57.8387 82.1178 60.1143 83.028 59.7502C83.9383 59.3861 84.0293 55.7451 84.0293 55.7451C84.0293 55.7451 83.9383 52.013 83.3922 51.7399C82.846 51.4668 81.649 51.5531 81.649 51.5531C81.649 51.5531 82.3909 53.3784 81.6627 53.4694Z" fill="#2F2E41"/>
<path d="M74.1074 25.9794C74.1074 25.9794 73.6523 27.4358 73.5612 27.7999C73.4702 28.164 72.924 29.1653 72.924 30.7128C72.924 32.2602 73.1061 34.0807 72.924 34.2628C72.742 34.4448 69.8291 44.6398 71.1035 45.7321C72.3779 46.8245 76.5651 50.4655 76.8382 50.9207C77.1113 51.3758 77.2023 52.4681 77.7485 52.2861C78.2946 52.104 80.3882 50.2835 80.4793 49.9194C80.5703 49.5553 79.2959 48.9181 79.2959 48.9181C79.2959 48.9181 76.7472 45.186 76.11 45.277C75.4728 45.368 75.5638 44.8219 75.6548 44.5488C75.7459 44.2757 75.9279 44.0937 75.6548 44.0937C75.3818 44.0937 75.5638 43.3655 75.6548 43.0013C75.7459 42.6372 77.8395 37.7218 77.8395 37.7218L83.3921 35.2641C83.3921 35.2641 83.119 28.6191 81.1164 26.7986L80.6613 25.7063C80.6613 25.7063 75.5638 25.3422 74.1074 25.9794Z" fill="#2F2E41"/>
<path d="M76.3832 11.5971C76.3832 11.5971 76.8383 14.7831 75.746 14.9651C74.6537 15.1472 73.7434 15.0562 73.7434 15.1472C73.7434 15.2382 76.4742 18.06 76.4742 18.06L79.0229 17.878L81.2986 15.4203C81.2986 15.4203 79.205 15.0561 79.205 13.7818C79.205 12.5074 79.114 11.5971 79.114 11.5971L76.3832 11.5971Z" fill="#FFB8B8"/>
<path d="M77.794 12.917C79.3524 12.917 80.6158 11.6537 80.6158 10.0952C80.6158 8.53675 79.3524 7.27338 77.794 7.27338C76.2355 7.27338 74.9722 8.53675 74.9722 10.0952C74.9722 11.6537 76.2355 12.917 77.794 12.917Z" fill="#FFB8B8"/>
<path d="M76.1471 14.7334C76.1471 14.7334 71.7407 15.1472 71.4676 16.3305C71.1945 17.5139 73.2881 24.887 73.5612 25.5242C73.8343 26.1614 73.7433 26.6165 73.7433 26.6165C74.1552 26.3085 74.6282 26.0923 75.1307 25.9824C75.6331 25.8725 76.1533 25.8714 76.6561 25.9794C78.3856 26.3435 80.8434 26.1614 80.8434 26.1614C80.8434 26.1614 81.6626 22.7934 81.8446 22.4293C82.0267 22.0652 82.7549 20.0626 82.7549 19.5165C82.7549 18.9703 83.8472 16.6946 83.8472 16.6946C83.8472 16.6946 83.3011 15.0562 81.2985 15.1472C81.2985 15.1472 80.425 14.7562 80.179 15.0427C79.9331 15.3292 78.5677 16.6036 76.8382 16.0575C75.1087 15.5113 76.1471 14.7334 76.1471 14.7334Z" fill="#E6E6E6"/>
<path d="M82.1177 16.2395L83.8472 16.6946C83.8472 16.6946 85.1216 21.337 85.2126 21.428C85.3037 21.519 85.3947 22.0652 85.3947 22.0652C85.3947 22.0652 85.3947 22.1562 85.5767 22.4293C85.7588 22.7024 86.0319 22.5203 85.8498 22.8844C85.6678 23.2486 85.3947 23.0665 85.5767 23.4306C85.7588 23.7947 85.6678 24.796 85.6678 24.796C85.6678 24.796 85.2126 23.0665 83.5741 23.5216L82.4818 18.6062L82.1177 16.2395Z" fill="#E6E6E6"/>
<path d="M82.6893 17.1108L82.6831 17.1316L79.6848 26.5771L77.7169 26.14L75.5886 25.6676L78.5931 15.9276L82.6893 17.1108Z" fill="#6C63FF"/>
<path d="M73.2287 16.2395L71.4992 16.6946C71.4992 16.6946 70.2248 21.337 70.1338 21.428C70.0427 21.519 69.9517 22.0652 69.9517 22.0652C69.9517 22.0652 69.9517 22.1562 69.7696 22.4293C69.5876 22.7024 69.3145 22.5203 69.4966 22.8844C69.6786 23.2486 69.9517 23.0665 69.7696 23.4306C69.5876 23.7947 69.6786 24.796 69.6786 24.796C69.6786 24.796 70.1338 23.0665 71.7723 23.5216L72.8646 18.6062L73.2287 16.2395Z" fill="#E6E6E6"/>
<path d="M70.2249 23.2485L69.6562 24.1989C69.6562 24.1989 69.4056 25.9793 70.68 25.9793C71.9544 25.9793 73.7749 24.2498 73.7749 24.2498C73.7749 24.2498 74.6852 23.8857 75.2313 23.9768C75.7775 24.0678 78.7814 23.9768 77.507 22.4293C76.2326 20.8819 74.048 22.4293 74.048 22.4293L71.7723 23.5216L70.589 22.8844L70.2249 23.2485Z" fill="#FFB8B8"/>
<path d="M70.9986 22.0197L71.9089 23.4761C71.9089 23.4761 69.8153 23.7492 69.6332 24.2043C69.4512 24.6595 70.4525 21.8376 70.4525 21.8376L70.9986 22.0197Z" fill="#E6E6E6"/>
<path d="M75.4439 9.10024C77.2771 8.11195 78.0301 8.1538 80.3095 9.10024L80.9177 7.61844C80.9174 7.33943 80.8065 7.07194 80.6092 6.87465C80.4119 6.67736 80.1444 6.56638 79.8654 6.56607H75.7867C75.5077 6.56639 75.2402 6.67736 75.043 6.87465C74.8457 7.07194 74.7347 7.33943 74.7344 7.61844L75.4439 9.10024Z" fill="#2F2E41"/>
<path opacity="0.2" d="M82.6833 17.1316L79.685 26.5771L77.717 26.14L80.6747 16.552L82.6833 17.1316Z" fill="black"/>
<path d="M81.2986 16.5518L78.2947 26.2916L82.3909 27.2018L85.3948 17.735L81.2986 16.5518Z" fill="#6C63FF"/>
<path d="M85.1216 23.2485L85.6903 24.1989C85.6903 24.1989 85.9409 25.9793 84.6665 25.9793C83.3921 25.9793 81.5716 24.2498 81.5716 24.2498C81.5716 24.2498 80.6613 23.8857 80.1152 23.9768C79.569 24.0678 76.5651 23.9768 77.8395 22.4293C79.1139 20.8819 81.2985 22.4293 81.2985 22.4293L83.5742 23.5216L84.7575 22.8844L85.1216 23.2485Z" fill="#FFB8B8"/>
<path d="M84.348 22.0197L83.4377 23.4761C83.4377 23.4761 85.5314 23.7492 85.7134 24.2043C85.8955 24.6595 84.8942 21.8376 84.8942 21.8376L84.348 22.0197Z" fill="#E6E6E6"/>
</g>
<defs>
<clipPath id="clip0">
<rect width="92.0717" height="60" fill="white"/>
</clipPath>
</defs>
</svg>
