<svg width="70" height="60" viewBox="0 0 70 60" fill="none" xmlns="http://www.w3.org/2000/svg">
<g clip-path="url(#clip0)">
<path d="M69.3332 26.8057H36.4746V60H69.3332V26.8057Z" fill="url(#paint0_linear)"/>
<path d="M68.8867 32.0584H36.9219V59.1054H68.8867V32.0584Z" fill="white"/>
<path d="M68.8867 27.1414H36.9219V32.0592H68.8867V27.1414Z" fill="#BDBDBD"/>
<path d="M39.3808 30.8289C40.0598 30.8289 40.6103 30.2785 40.6103 29.5995C40.6103 28.9205 40.0598 28.37 39.3808 28.37C38.7018 28.37 38.1514 28.9205 38.1514 29.5995C38.1514 30.2785 38.7018 30.8289 39.3808 30.8289Z" fill="#FF5252"/>
<path d="M42.5102 30.8289C43.1892 30.8289 43.7397 30.2785 43.7397 29.5995C43.7397 28.9205 43.1892 28.37 42.5102 28.37C41.8312 28.37 41.2808 28.9205 41.2808 29.5995C41.2808 30.2785 41.8312 30.8289 42.5102 30.8289Z" fill="#FFFF00"/>
<path d="M45.6396 30.8289C46.3186 30.8289 46.869 30.2785 46.869 29.5995C46.869 28.9205 46.3186 28.37 45.6396 28.37C44.9606 28.37 44.4102 28.9205 44.4102 29.5995C44.4102 30.2785 44.9606 30.8289 45.6396 30.8289Z" fill="#69F0AE"/>
<path d="M66.0709 38.3895H39.7368V40.0404H66.0709V38.3895Z" fill="#E0E0E0"/>
<path d="M66.0709 42.6345H39.7368V44.2853H66.0709V42.6345Z" fill="#E0E0E0"/>
<path d="M66.0709 46.8793H39.7368V48.5301H66.0709V46.8793Z" fill="#E0E0E0"/>
<path d="M66.0709 51.1242H39.7368V52.775H66.0709V51.1242Z" fill="#E0E0E0"/>
<path d="M50.3099 42.2587C52.0031 42.2587 53.3757 40.8861 53.3757 39.193C53.3757 37.4998 52.0031 36.1272 50.3099 36.1272C48.6167 36.1272 47.2441 37.4998 47.2441 39.193C47.2441 40.8861 48.6167 42.2587 50.3099 42.2587Z" fill="url(#paint1_linear)"/>
<path d="M57.8563 46.5036C59.5495 46.5036 60.922 45.131 60.922 43.4378C60.922 41.7447 59.5495 40.3721 57.8563 40.3721C56.1631 40.3721 54.7905 41.7447 54.7905 43.4378C54.7905 45.131 56.1631 46.5036 57.8563 46.5036Z" fill="url(#paint2_linear)"/>
<path d="M54.0831 50.7485C55.7763 50.7485 57.1488 49.3759 57.1488 47.6827C57.1488 45.9896 55.7763 44.617 54.0831 44.617C52.3899 44.617 51.0173 45.9896 51.0173 47.6827C51.0173 49.3759 52.3899 50.7485 54.0831 50.7485Z" fill="url(#paint3_linear)"/>
<path d="M64.6168 54.9934C66.31 54.9934 67.6825 53.6208 67.6825 51.9276C67.6825 50.2345 66.31 48.8619 64.6168 48.8619C62.9236 48.8619 61.551 50.2345 61.551 51.9276C61.551 53.6208 62.9236 54.9934 64.6168 54.9934Z" fill="url(#paint4_linear)"/>
<path d="M50.3099 41.7871C51.7426 41.7871 52.904 40.6256 52.904 39.1929C52.904 37.7603 51.7426 36.5988 50.3099 36.5988C48.8772 36.5988 47.7158 37.7603 47.7158 39.1929C47.7158 40.6256 48.8772 41.7871 50.3099 41.7871Z" fill="#6C63FF"/>
<path d="M57.8563 46.032C59.289 46.032 60.4504 44.8705 60.4504 43.4379C60.4504 42.0052 59.289 40.8438 57.8563 40.8438C56.4236 40.8438 55.2622 42.0052 55.2622 43.4379C55.2622 44.8705 56.4236 46.032 57.8563 46.032Z" fill="#6C63FF"/>
<path d="M54.0831 50.2768C55.5158 50.2768 56.6772 49.1154 56.6772 47.6827C56.6772 46.25 55.5158 45.0886 54.0831 45.0886C52.6504 45.0886 51.489 46.25 51.489 47.6827C51.489 49.1154 52.6504 50.2768 54.0831 50.2768Z" fill="#6C63FF"/>
<path d="M64.6168 54.5217C66.0495 54.5217 67.2109 53.3603 67.2109 51.9276C67.2109 50.4949 66.0495 49.3335 64.6168 49.3335C63.1841 49.3335 62.0227 50.4949 62.0227 51.9276C62.0227 53.3603 63.1841 54.5217 64.6168 54.5217Z" fill="#69F0AE"/>
<path d="M32.8586 0H0V33.1943H32.8586V0Z" fill="url(#paint5_linear)"/>
<path d="M32.4121 5.25266H0.447266V32.2997H32.4121V5.25266Z" fill="white"/>
<path d="M32.4121 0.335678H0.447266V5.25347H32.4121V0.335678Z" fill="#BDBDBD"/>
<path d="M2.9062 4.02323C3.58521 4.02323 4.13565 3.47278 4.13565 2.79378C4.13565 2.11477 3.58521 1.56433 2.9062 1.56433C2.2272 1.56433 1.67676 2.11477 1.67676 2.79378C1.67676 3.47278 2.2272 4.02323 2.9062 4.02323Z" fill="#FF5252"/>
<path d="M6.0356 4.02323C6.71461 4.02323 7.26505 3.47278 7.26505 2.79378C7.26505 2.11477 6.71461 1.56433 6.0356 1.56433C5.3566 1.56433 4.80615 2.11477 4.80615 2.79378C4.80615 3.47278 5.3566 4.02323 6.0356 4.02323Z" fill="#FFFF00"/>
<path d="M9.16499 4.02323C9.844 4.02323 10.3944 3.47278 10.3944 2.79378C10.3944 2.11477 9.844 1.56433 9.16499 1.56433C8.48599 1.56433 7.93555 2.11477 7.93555 2.79378C7.93555 3.47278 8.48599 4.02323 9.16499 4.02323Z" fill="#69F0AE"/>
<path d="M10.4463 11.7356H7.43872V25.8176H10.4463V11.7356Z" fill="#E0E0E0"/>
<path d="M15.4373 11.7356H12.4297V25.8176H15.4373V11.7356Z" fill="#E0E0E0"/>
<path d="M20.4273 11.7356H17.4197V25.8176H20.4273V11.7356Z" fill="#E0E0E0"/>
<path d="M25.4175 11.7356H22.4099V25.8176H25.4175V11.7356Z" fill="#E0E0E0"/>
<path d="M10.4463 18.7766H7.43872V25.8176H10.4463V18.7766Z" fill="#2196F3"/>
<g opacity="0.4">
<path opacity="0.4" d="M10.4463 15.8366H7.43872V18.9126H10.4463V15.8366Z" fill="#2196F3"/>
</g>
<path opacity="0.4" d="M15.4649 17.294H12.4573V20.37H15.4649V17.294Z" fill="#69F0AE"/>
<path opacity="0.4" d="M25.419 17.4552H22.4114V20.5311H25.419V17.4552Z" fill="#FFFF00"/>
<path d="M15.4373 20.3047H12.4297V25.8168H15.4373V20.3047Z" fill="#69F0AE"/>
<path d="M20.4273 17.7507H17.4197V25.8176H20.4273V17.7507Z" fill="#6C63FF"/>
<path opacity="0.4" d="M20.4273 14.9483H17.4197V17.7507H20.4273V14.9483Z" fill="#6C63FF"/>
<path d="M25.4175 20.5539H22.4099V25.8176H25.4175V20.5539Z" fill="#FFFF00"/>
<path d="M48.2661 12.6128H15.4075V45.8071H48.2661V12.6128Z" fill="url(#paint6_linear)"/>
<path d="M47.8196 17.8655H15.8547V44.9126H47.8196V17.8655Z" fill="white"/>
<path d="M47.8196 12.9477H15.8547V17.8655H47.8196V12.9477Z" fill="#BDBDBD"/>
<path d="M18.3137 16.636C18.9927 16.636 19.5431 16.0856 19.5431 15.4066C19.5431 14.7276 18.9927 14.1772 18.3137 14.1772C17.6347 14.1772 17.0842 14.7276 17.0842 15.4066C17.0842 16.0856 17.6347 16.636 18.3137 16.636Z" fill="#FF5252"/>
<path d="M21.4431 16.636C22.1221 16.636 22.6725 16.0856 22.6725 15.4066C22.6725 14.7276 22.1221 14.1772 21.4431 14.1772C20.7641 14.1772 20.2136 14.7276 20.2136 15.4066C20.2136 16.0856 20.7641 16.636 21.4431 16.636Z" fill="#FFFF00"/>
<path d="M24.5725 16.636C25.2515 16.636 25.8019 16.0856 25.8019 15.4066C25.8019 14.7276 25.2515 14.1772 24.5725 14.1772C23.8935 14.1772 23.343 14.7276 23.343 15.4066C23.343 16.0856 23.8935 16.636 24.5725 16.636Z" fill="#69F0AE"/>
<path d="M31.8368 22.112H31.781V40.6637H31.8368C34.2969 40.6637 36.6563 39.6864 38.3959 37.9469C40.1354 36.2073 41.1127 33.848 41.1127 31.3878C41.1127 28.9277 40.1354 26.5684 38.3959 24.8288C36.6563 23.0892 34.2969 22.112 31.8368 22.112Z" fill="#2196F3"/>
<path d="M31.7809 22.1135C29.3397 22.1282 27.0026 23.1046 25.2766 24.831C23.5506 26.5575 22.5748 28.8947 22.5608 31.336H31.7809V22.1135Z" fill="#69F0AE"/>
<path d="M22.0586 31.4318C22.0586 31.4515 22.0586 31.4703 22.0586 31.49C22.0588 34.047 23.0706 36.5 24.8732 38.3135C26.6758 40.127 29.1227 41.1536 31.6796 41.1692V31.4318H22.0586Z" fill="url(#paint7_linear)"/>
<path d="M22.3384 31.5561C22.3384 31.5749 22.3384 31.593 22.3384 31.6119C22.3383 34.0625 23.3081 36.4135 25.0357 38.1515C26.7634 39.8895 29.1087 40.8732 31.5592 40.8878V31.5561H22.3384Z" fill="#6C63FF"/>
</g>
<defs>
<linearGradient id="paint0_linear" x1="52.9039" y1="60" x2="52.9039" y2="26.8057" gradientUnits="userSpaceOnUse">
<stop stop-color="#808080" stop-opacity="0.25"/>
<stop offset="0.54" stop-color="#808080" stop-opacity="0.12"/>
<stop offset="1" stop-color="#808080" stop-opacity="0.1"/>
</linearGradient>
<linearGradient id="paint1_linear" x1="3971.41" y1="3332.31" x2="3971.41" y2="2854.05" gradientUnits="userSpaceOnUse">
<stop stop-color="#808080" stop-opacity="0.25"/>
<stop offset="0.54" stop-color="#808080" stop-opacity="0.12"/>
<stop offset="1" stop-color="#808080" stop-opacity="0.1"/>
</linearGradient>
<linearGradient id="paint2_linear" x1="4567.59" y1="3667.65" x2="4567.59" y2="3189.39" gradientUnits="userSpaceOnUse">
<stop stop-color="#808080" stop-opacity="0.25"/>
<stop offset="0.54" stop-color="#808080" stop-opacity="0.12"/>
<stop offset="1" stop-color="#808080" stop-opacity="0.1"/>
</linearGradient>
<linearGradient id="paint3_linear" x1="4269.5" y1="4003" x2="4269.5" y2="3524.74" gradientUnits="userSpaceOnUse">
<stop stop-color="#808080" stop-opacity="0.25"/>
<stop offset="0.54" stop-color="#808080" stop-opacity="0.12"/>
<stop offset="1" stop-color="#808080" stop-opacity="0.1"/>
</linearGradient>
<linearGradient id="paint4_linear" x1="5101.65" y1="4338.35" x2="5101.65" y2="3860.09" gradientUnits="userSpaceOnUse">
<stop stop-color="#808080" stop-opacity="0.25"/>
<stop offset="0.54" stop-color="#808080" stop-opacity="0.12"/>
<stop offset="1" stop-color="#808080" stop-opacity="0.1"/>
</linearGradient>
<linearGradient id="paint5_linear" x1="6867.45" y1="14016.9" x2="6867.45" y2="0" gradientUnits="userSpaceOnUse">
<stop stop-color="#808080" stop-opacity="0.25"/>
<stop offset="0.54" stop-color="#808080" stop-opacity="0.12"/>
<stop offset="1" stop-color="#808080" stop-opacity="0.1"/>
</linearGradient>
<linearGradient id="paint6_linear" x1="13323.1" y1="19355.2" x2="13323.1" y2="5338.63" gradientUnits="userSpaceOnUse">
<stop stop-color="#808080" stop-opacity="0.25"/>
<stop offset="0.54" stop-color="#808080" stop-opacity="0.12"/>
<stop offset="1" stop-color="#808080" stop-opacity="0.1"/>
</linearGradient>
<linearGradient id="paint7_linear" x1="4840.24" y1="5796.81" x2="4840.24" y2="4590.65" gradientUnits="userSpaceOnUse">
<stop stop-color="#808080" stop-opacity="0.25"/>
<stop offset="0.54" stop-color="#808080" stop-opacity="0.12"/>
<stop offset="1" stop-color="#808080" stop-opacity="0.1"/>
</linearGradient>
<clipPath id="clip0">
<rect width="69.3333" height="60" fill="white"/>
</clipPath>
</defs>
</svg>
