<svg width="87" height="60" viewBox="0 0 87 60" fill="none" xmlns="http://www.w3.org/2000/svg">
<g clip-path="url(#clip0)">
<path d="M17.1823 60C26.6718 60 34.3645 59.4158 34.3645 58.695C34.3645 57.9743 26.6718 57.39 17.1823 57.39C7.69276 57.39 0 57.9743 0 58.695C0 59.4158 7.69276 60 17.1823 60Z" fill="#E6E6E6"/>
<path d="M13.1338 13.3129C16.124 12.0411 19.8484 12.8469 23.4857 13.4062C23.5195 12.7289 23.9298 11.9046 23.5 11.4321C22.9779 10.8581 23.026 10.2549 23.3402 9.64823C24.1436 8.09693 22.9925 6.44626 21.8303 5.07375C21.5683 4.7651 21.2372 4.52258 20.8639 4.3659C20.4907 4.20922 20.0857 4.1428 19.6819 4.17203L17.5289 4.32582C17.005 4.36324 16.5051 4.55976 16.0959 4.8891C15.6868 5.21844 15.388 5.66488 15.2395 6.16868V6.16868C14.7254 6.86785 14.4502 7.56508 14.6235 8.25867C13.8535 8.78489 13.7241 9.42008 14.0701 10.1362C14.3635 10.587 14.3604 11.0259 14.0567 11.4526C13.658 11.9967 13.3526 12.6033 13.153 13.2476L13.1338 13.3129Z" fill="#2F2E41"/>
<path d="M84.1942 51.869H23.2496C22.7076 51.869 22.1878 51.6537 21.8046 51.2705C21.4214 50.8873 21.2061 50.3675 21.2061 49.8255C43.2985 47.258 64.9757 47.258 86.2377 49.8255C86.2377 50.3675 86.0224 50.8873 85.6392 51.2705C85.2559 51.6537 84.7361 51.869 84.1942 51.869Z" fill="#2F2E41"/>
<path d="M86.2377 49.9457L21.2061 49.8255L28.743 37.1437L28.7791 37.0836V9.13447C28.779 8.79523 28.8458 8.4593 28.9756 8.14588C29.1054 7.83245 29.2957 7.54767 29.5356 7.30779C29.7755 7.06791 30.0603 6.87763 30.3737 6.74782C30.6871 6.61801 31.023 6.55121 31.3623 6.55124H75.7208C76.0601 6.55121 76.396 6.61801 76.7094 6.74782C77.0228 6.87763 77.3076 7.06791 77.5475 7.30779C77.7874 7.54767 77.9777 7.83245 78.1075 8.14588C78.2373 8.4593 78.3041 8.79523 78.3041 9.13447V37.276L86.2377 49.9457Z" fill="#3F3D56"/>
<path d="M31.3034 8.35434C31.0803 8.35459 30.8664 8.44332 30.7086 8.60107C30.5509 8.75882 30.4622 8.9727 30.4619 9.19578V34.6795C30.4622 34.9026 30.5509 35.1165 30.7087 35.2742C30.8664 35.432 31.0803 35.5207 31.3034 35.521H76.1403C76.3634 35.5207 76.5773 35.432 76.735 35.2742C76.8928 35.1165 76.9815 34.9026 76.9818 34.6795V9.19578C76.9815 8.9727 76.8928 8.75883 76.735 8.60108C76.5773 8.44334 76.3634 8.3546 76.1403 8.35434H31.3034Z" fill="white"/>
<path d="M31.4911 38.8868C31.4222 38.8869 31.3547 38.9067 31.2967 38.9439C31.2386 38.9811 31.1924 39.0341 31.1635 39.0966L28.8411 44.1453C28.8158 44.2003 28.8048 44.2607 28.809 44.321C28.8132 44.3813 28.8324 44.4397 28.8651 44.4906C28.8977 44.5415 28.9426 44.5834 28.9957 44.6124C29.0487 44.6415 29.1082 44.6567 29.1687 44.6567H78.0068C78.0682 44.6567 78.1287 44.641 78.1824 44.611C78.2361 44.5811 78.2812 44.5379 78.3135 44.4856C78.3458 44.4333 78.3642 44.3736 78.367 44.3122C78.3697 44.2508 78.3567 44.1897 78.3292 44.1348L75.8049 39.0861C75.7751 39.0261 75.7291 38.9756 75.6722 38.9403C75.6152 38.9051 75.5494 38.8866 75.4824 38.8868H31.4911Z" fill="#2F2E41"/>
<path d="M53.5414 7.93361C53.8401 7.93361 54.0823 7.69143 54.0823 7.39269C54.0823 7.09394 53.8401 6.85176 53.5414 6.85176C53.2427 6.85176 53.0005 7.09394 53.0005 7.39269C53.0005 7.69143 53.2427 7.93361 53.5414 7.93361Z" fill="white"/>
<path d="M48.741 45.6183C48.6617 45.6184 48.5847 45.6446 48.5218 45.6928C48.4588 45.741 48.4135 45.8086 48.3928 45.8851L47.8103 48.0489C47.7959 48.1023 47.794 48.1583 47.8047 48.2126C47.8154 48.267 47.8385 48.3181 47.8722 48.362C47.9059 48.4059 47.9492 48.4415 47.9988 48.466C48.0485 48.4905 48.1031 48.5033 48.1584 48.5033H59.2371C59.2946 48.5033 59.3512 48.4895 59.4023 48.4632C59.4534 48.4368 59.4975 48.3986 59.5308 48.3518C59.5641 48.305 59.5858 48.2508 59.594 48.1939C59.6021 48.137 59.5966 48.079 59.5777 48.0247L58.8288 45.861C58.8042 45.7901 58.7582 45.7287 58.6972 45.6852C58.6361 45.6417 58.563 45.6183 58.488 45.6183H48.741Z" fill="#2F2E41"/>
<path d="M78.304 36.6629V37.1437H28.7429L28.7802 37.0837V36.6629H78.304Z" fill="#2F2E41"/>
<path d="M76.9215 16.8289C81.5687 16.8289 85.336 13.0616 85.336 8.41444C85.336 3.76727 81.5687 0 76.9215 0C72.2744 0 68.5071 3.76727 68.5071 8.41444C68.5071 13.0616 72.2744 16.8289 76.9215 16.8289Z" fill="#6C63FF"/>
<path d="M80.4076 12.0807H73.4357C73.3082 12.0806 73.1859 12.0299 73.0958 11.9398C73.0057 11.8496 72.955 11.7274 72.9548 11.5999V7.39269C72.955 7.26521 73.0057 7.14299 73.0958 7.05285C73.186 6.9627 73.3082 6.912 73.4357 6.91187H80.4076C80.5351 6.912 80.6573 6.9627 80.7475 7.05285C80.8376 7.14299 80.8883 7.26521 80.8885 7.39269V11.5999C80.8883 11.7274 80.8376 11.8496 80.7475 11.9398C80.6573 12.0299 80.5351 12.0806 80.4076 12.0807ZM73.4357 7.39269V11.5999H80.408L80.4076 7.39269L73.4357 7.39269Z" fill="white"/>
<path d="M79.0852 7.39269H74.7578V5.46939C74.7578 4.07634 75.6678 3.06526 76.9215 3.06526C78.1752 3.06526 79.0852 4.07634 79.0852 5.46939L79.0852 7.39269ZM75.2386 6.91187H78.6044V5.46939C78.6044 4.33699 77.9124 3.54609 76.9215 3.54609C75.9307 3.54609 75.2386 4.337 75.2386 5.46939L75.2386 6.91187Z" fill="white"/>
<path d="M76.9215 9.85691C77.187 9.85691 77.4023 9.64164 77.4023 9.37609C77.4023 9.11054 77.187 8.89526 76.9215 8.89526C76.6559 8.89526 76.4407 9.11054 76.4407 9.37609C76.4407 9.64164 76.6559 9.85691 76.9215 9.85691Z" fill="white"/>
<path d="M71.0477 26.8772H36.3961C36.226 26.877 36.0629 26.8093 35.9426 26.689C35.8223 26.5687 35.7546 26.4056 35.7544 26.2355V17.6399C35.7546 17.4697 35.8223 17.3066 35.9426 17.1863C36.0629 17.066 36.226 16.9984 36.3961 16.9982H71.0477C71.2178 16.9984 71.3809 17.066 71.5012 17.1863C71.6215 17.3066 71.6892 17.4697 71.6894 17.6399V26.2355C71.6892 26.4056 71.6215 26.5687 71.5012 26.689C71.3809 26.8093 71.2178 26.877 71.0477 26.8772V26.8772ZM36.3961 17.2549C36.294 17.255 36.1961 17.2956 36.124 17.3677C36.0518 17.4399 36.0112 17.5378 36.0111 17.6399V26.2355C36.0112 26.3375 36.0518 26.4354 36.124 26.5076C36.1961 26.5798 36.294 26.6204 36.3961 26.6205H71.0477C71.1498 26.6204 71.2477 26.5798 71.3198 26.5076C71.392 26.4354 71.4326 26.3375 71.4327 26.2355V17.6399C71.4326 17.5378 71.392 17.4399 71.3198 17.3677C71.2477 17.2956 71.1498 17.255 71.0477 17.2548L36.3961 17.2549Z" fill="#E6E6E6"/>
<path d="M41.7802 24.2218C43.2238 24.2218 44.3941 23.0515 44.3941 21.6078C44.3941 20.1642 43.2238 18.9939 41.7802 18.9939C40.3366 18.9939 39.1663 20.1642 39.1663 21.6078C39.1663 23.0515 40.3366 24.2218 41.7802 24.2218Z" fill="#E6E6E6"/>
<path d="M47.817 19.8652C47.7597 19.8651 47.703 19.8763 47.65 19.8982C47.5971 19.92 47.549 19.9521 47.5085 19.9926C47.4679 20.0331 47.4358 20.0811 47.4138 20.134C47.3919 20.1869 47.3806 20.2436 47.3806 20.3009C47.3806 20.3582 47.3919 20.4149 47.4138 20.4678C47.4358 20.5207 47.4679 20.5687 47.5085 20.6092C47.549 20.6496 47.5971 20.6817 47.65 20.7036C47.703 20.7254 47.7597 20.7366 47.817 20.7365H68.355C68.4705 20.7365 68.5813 20.6906 68.663 20.6089C68.7447 20.5272 68.7906 20.4164 68.7906 20.3009C68.7906 20.1853 68.7447 20.0745 68.663 19.9928C68.5813 19.9111 68.4705 19.8652 68.355 19.8652H47.817Z" fill="#E6E6E6"/>
<path d="M47.817 22.4792C47.7015 22.4792 47.5906 22.5251 47.5089 22.6068C47.4272 22.6885 47.3813 22.7993 47.3813 22.9148C47.3813 23.0304 47.4272 23.1412 47.5089 23.2229C47.5906 23.3046 47.7015 23.3505 47.817 23.3505H56.6546C56.7701 23.3505 56.8809 23.3046 56.9626 23.2229C57.0443 23.1412 57.0902 23.0304 57.0902 22.9148C57.0902 22.7993 57.0443 22.6885 56.9626 22.6068C56.8809 22.5251 56.7701 22.4792 56.6546 22.4792H47.817Z" fill="#E6E6E6"/>
<path d="M28.6576 22.6554L22.252 26.0609L22.1709 23.223C24.2616 22.874 26.2508 22.2663 28.09 21.277L28.76 19.6218C28.833 19.4415 28.9516 19.2832 29.1043 19.1625C29.2569 19.0419 29.4383 18.963 29.6306 18.9336C29.823 18.9043 30.0197 18.9254 30.2014 18.995C30.3831 19.0646 30.5435 19.1803 30.667 19.3306V19.3306C30.8477 19.5506 30.938 19.831 30.9197 20.1151C30.9014 20.3992 30.7757 20.6657 30.5682 20.8606L28.6576 22.6554Z" fill="#FFB8B8"/>
<path d="M13.0062 42.3176C12.9595 42.1462 12.9496 41.9669 12.9771 41.7914C13.0047 41.6159 13.069 41.4482 13.166 41.2994L14.5732 39.1399C14.906 38.6291 15.4167 38.2602 16.0061 38.1047C16.5956 37.9492 17.2218 38.0182 17.7633 38.2983V38.2983C17.1719 39.3049 17.2544 40.188 17.9675 40.9554C16.8604 41.4959 15.8372 42.1934 14.9295 43.0265C14.7638 43.1395 14.5735 43.2112 14.3745 43.2357C14.1755 43.2603 13.9734 43.2369 13.7853 43.1675C13.5971 43.0982 13.4282 42.9848 13.2927 42.837C13.1572 42.6892 13.059 42.5111 13.0062 42.3176V42.3176Z" fill="#2F2E41"/>
<path d="M28.9494 39.4941C28.7365 39.8489 28.4359 40.1431 28.0766 40.3484C27.7172 40.5537 27.3111 40.6631 26.8973 40.6663L17.5492 40.7371L17.1438 38.3857L21.2791 37.1694L17.7925 34.4936L21.6034 30.034L28.5252 36.4855C28.9298 36.8625 29.1927 37.3671 29.2699 37.9147C29.3471 38.4623 29.234 39.0198 28.9494 39.4941V39.4941Z" fill="#2F2E41"/>
<path d="M16.0895 55.5754H13.9003C11.9346 42.1017 9.9338 28.5903 15.8463 23.5473L22.8195 24.6825L21.9276 30.6016L18.0356 35.0612L16.0895 55.5754Z" fill="#2F2E41"/>
<path d="M18.0142 58.6276C17.8428 58.6743 17.6635 58.6842 17.488 58.6567C17.3125 58.6292 17.1448 58.5648 16.996 58.4679L14.6189 58.1483C14.1081 57.8155 13.7391 57.3049 13.5836 56.7154C13.428 56.126 13.497 55.4998 13.7771 54.9583C14.7837 55.5496 15.6668 55.4671 16.4342 54.7539C16.9764 55.8487 17.8698 55.7819 18.723 56.7043C18.8359 56.87 18.9077 57.0602 18.9322 57.2593C18.9568 57.4583 18.9334 57.6603 18.864 57.8485C18.7947 58.0367 18.6814 58.2055 18.5336 58.3411C18.3857 58.4766 18.2077 58.5748 18.0142 58.6276V58.6276Z" fill="#2F2E41"/>
<path d="M21.279 14.547L17.2249 13.574C17.8982 12.1957 17.9536 10.6621 17.6303 9.03331L20.3871 8.95222C20.4735 10.9777 20.7348 12.87 21.279 14.547Z" fill="#FFB8B8"/>
<path d="M22.3933 27.1239C19.442 29.135 17.3567 27.1927 15.7654 24.196C15.9865 22.3623 15.6285 20.1679 14.9653 17.7835C14.6704 16.7318 14.7805 15.6078 15.2739 14.6333C15.7673 13.6588 16.6081 12.9047 17.6303 12.5199V12.5199L21.1169 13.9794C24.0774 16.3926 24.6602 19.0066 23.5494 21.7635L22.3933 27.1239Z" fill="#6C63FF"/>
<path d="M13.9003 16.5741L10.6569 18.2769L16.4139 21.6824L17.2149 23.6583C17.2684 23.7902 17.2944 23.9315 17.2915 24.0738C17.2885 24.2161 17.2566 24.3563 17.1977 24.4858C17.1388 24.6154 17.0541 24.7316 16.9488 24.8273C16.8436 24.9231 16.7199 24.9964 16.5854 25.0427V25.0427C16.4324 25.0955 16.2694 25.1121 16.109 25.0913C15.9485 25.0705 15.7951 25.0128 15.6607 24.9228C15.5263 24.8328 15.4145 24.7129 15.3342 24.5725C15.2538 24.4321 15.2071 24.275 15.1976 24.1136L15.1166 22.7365L7.79953 20.3219C7.553 20.2405 7.32822 20.1041 7.14221 19.923C6.95619 19.7419 6.81383 19.5209 6.72589 19.2766V19.2766C6.59772 18.9206 6.59119 18.5321 6.70734 18.1719C6.82349 17.8118 7.05576 17.5003 7.3678 17.2862L13.2516 13.2497L13.9003 16.5741Z" fill="#FFB8B8"/>
<path d="M17.1437 16.8984C15.791 16.3056 14.561 16.9496 13.0084 17.466L12.7651 13.1686C14.3068 12.3469 15.7766 12.1254 17.1437 12.7632L17.1437 16.8984Z" fill="#6C63FF"/>
<path d="M18.7618 11.0809C20.1913 11.0809 21.3502 9.92199 21.3502 8.49244C21.3502 7.06288 20.1913 5.90399 18.7618 5.90399C17.3322 5.90399 16.1733 7.06288 16.1733 8.49244C16.1733 9.92199 17.3322 11.0809 18.7618 11.0809Z" fill="#FFB8B8"/>
<path d="M21.8584 8.16586C19.2956 8.41686 17.3428 7.99773 16.0947 6.80432V5.84323H21.6409L21.8584 8.16586Z" fill="#2F2E41"/>
</g>
<defs>
<clipPath id="clip0">
<rect width="86.2376" height="60" fill="white"/>
</clipPath>
</defs>
</svg>
